<mxfile host="app.diagrams.net" agent="Mozilla/5.0 (Windows NT 10.0; Win64; x64; rv:130.0) Gecko/20100101 Firefox/130.0" version="24.7.16">
  <diagram name="Страница — 1" id="5ZGqqqUKCSmSxOfgcRZt">
    <mxGraphModel dx="1615" dy="858" grid="1" gridSize="10" guides="1" tooltips="1" connect="1" arrows="1" fold="1" page="1" pageScale="1" pageWidth="827" pageHeight="1169" math="0" shadow="0">
      <root>
        <mxCell id="0" />
        <mxCell id="1" parent="0" />
        <mxCell id="PonbNWA1ZkeW4sVt43dB-3" value="WebClient&lt;br&gt;{OS: Any}" style="verticalAlign=top;align=left;spacingTop=8;spacingLeft=2;spacingRight=12;shape=cube;size=10;direction=south;fontStyle=4;html=1;whiteSpace=wrap;" parent="1" vertex="1">
          <mxGeometry x="130" y="380" width="230" height="180" as="geometry" />
        </mxCell>
        <mxCell id="PonbNWA1ZkeW4sVt43dB-5" value="&lt;div&gt;Web Browser&lt;/div&gt;&lt;div&gt;&lt;br&gt;&lt;/div&gt;&lt;div&gt;&lt;br&gt;&lt;/div&gt;&lt;div&gt;&lt;br&gt;&lt;/div&gt;" style="verticalAlign=top;align=left;spacingTop=8;spacingLeft=2;spacingRight=12;shape=cube;size=10;direction=south;fontStyle=4;html=1;whiteSpace=wrap;" parent="1" vertex="1">
          <mxGeometry x="180" y="440" width="150" height="110" as="geometry" />
        </mxCell>
        <mxCell id="PonbNWA1ZkeW4sVt43dB-6" value="ReactJS" style="html=1;whiteSpace=wrap;" parent="1" vertex="1">
          <mxGeometry x="230" y="490" width="80" height="50" as="geometry" />
        </mxCell>
        <mxCell id="PonbNWA1ZkeW4sVt43dB-7" value="" style="verticalAlign=top;align=left;overflow=fill;html=1;whiteSpace=wrap;" parent="1" vertex="1">
          <mxGeometry x="220" y="500" width="20" height="10" as="geometry" />
        </mxCell>
        <mxCell id="PonbNWA1ZkeW4sVt43dB-8" value="" style="verticalAlign=top;align=left;overflow=fill;html=1;whiteSpace=wrap;" parent="1" vertex="1">
          <mxGeometry x="220" y="520" width="20" height="10" as="geometry" />
        </mxCell>
        <mxCell id="PonbNWA1ZkeW4sVt43dB-17" value="" style="verticalAlign=top;align=left;overflow=fill;html=1;whiteSpace=wrap;" parent="1" vertex="1">
          <mxGeometry x="240" y="210" width="20" height="10" as="geometry" />
        </mxCell>
        <mxCell id="PonbNWA1ZkeW4sVt43dB-18" value="NodeJS" style="html=1;whiteSpace=wrap;" parent="1" vertex="1">
          <mxGeometry x="250" y="240" width="90" height="50" as="geometry" />
        </mxCell>
        <mxCell id="PonbNWA1ZkeW4sVt43dB-19" value="" style="verticalAlign=top;align=left;overflow=fill;html=1;whiteSpace=wrap;" parent="1" vertex="1">
          <mxGeometry x="240" y="250" width="20" height="10" as="geometry" />
        </mxCell>
        <mxCell id="PonbNWA1ZkeW4sVt43dB-20" value="" style="verticalAlign=top;align=left;overflow=fill;html=1;whiteSpace=wrap;" parent="1" vertex="1">
          <mxGeometry x="240" y="270" width="20" height="10" as="geometry" />
        </mxCell>
        <mxCell id="PonbNWA1ZkeW4sVt43dB-30" style="edgeStyle=orthogonalEdgeStyle;rounded=0;orthogonalLoop=1;jettySize=auto;html=1;exitX=0.5;exitY=1;exitDx=0;exitDy=0;endArrow=none;endFill=0;dashed=1;" parent="1" source="PonbNWA1ZkeW4sVt43dB-23" target="PonbNWA1ZkeW4sVt43dB-29" edge="1">
          <mxGeometry relative="1" as="geometry" />
        </mxCell>
        <mxCell id="PonbNWA1ZkeW4sVt43dB-23" value="&lt;div&gt;&lt;span style=&quot;white-space: pre;&quot;&gt;&#x9;&lt;/span&gt;&lt;/div&gt;&lt;div&gt;&amp;nbsp; mssqlserver&lt;/div&gt;&lt;div&gt;&lt;span style=&quot;white-space: pre;&quot;&gt;&#x9;&lt;/span&gt;.service&lt;/div&gt;" style="verticalAlign=top;align=left;overflow=fill;html=1;whiteSpace=wrap;" parent="1" vertex="1">
          <mxGeometry x="542.5" y="235" width="140" height="60" as="geometry" />
        </mxCell>
        <mxCell id="PonbNWA1ZkeW4sVt43dB-24" value="" style="verticalAlign=top;align=left;overflow=fill;html=1;whiteSpace=wrap;" parent="1" vertex="1">
          <mxGeometry x="642.5" y="245" width="30" height="40" as="geometry" />
        </mxCell>
        <mxCell id="PonbNWA1ZkeW4sVt43dB-25" value="" style="verticalAlign=top;align=left;overflow=fill;html=1;whiteSpace=wrap;" parent="1" vertex="1">
          <mxGeometry x="632.5" y="250" width="20" height="10" as="geometry" />
        </mxCell>
        <mxCell id="PonbNWA1ZkeW4sVt43dB-28" value="" style="verticalAlign=top;align=left;overflow=fill;html=1;whiteSpace=wrap;" parent="1" vertex="1">
          <mxGeometry x="632.5" y="270" width="20" height="10" as="geometry" />
        </mxCell>
        <mxCell id="PonbNWA1ZkeW4sVt43dB-29" value="MsSQLServer" style="shape=cylinder3;whiteSpace=wrap;html=1;boundedLbl=1;backgroundOutline=1;size=15;" parent="1" vertex="1">
          <mxGeometry x="565" y="360" width="95" height="70" as="geometry" />
        </mxCell>
        <mxCell id="PonbNWA1ZkeW4sVt43dB-33" style="edgeStyle=orthogonalEdgeStyle;rounded=0;orthogonalLoop=1;jettySize=auto;html=1;exitX=0;exitY=0;exitDx=75;exitDy=0;exitPerimeter=0;entryX=0.239;entryY=0.998;entryDx=0;entryDy=0;entryPerimeter=0;endArrow=none;endFill=0;" parent="1" edge="1">
          <mxGeometry relative="1" as="geometry">
            <mxPoint x="360" y="225" as="sourcePoint" />
            <mxPoint x="490.4599999999996" y="224.0899999999997" as="targetPoint" />
          </mxGeometry>
        </mxCell>
        <mxCell id="PonbNWA1ZkeW4sVt43dB-35" value="" style="endArrow=none;html=1;rounded=0;entryX=1.005;entryY=0.353;entryDx=0;entryDy=0;entryPerimeter=0;exitX=-0.009;exitY=0.353;exitDx=0;exitDy=0;exitPerimeter=0;" parent="1" source="PonbNWA1ZkeW4sVt43dB-3" edge="1">
          <mxGeometry width="50" height="50" relative="1" as="geometry">
            <mxPoint x="280" y="370" as="sourcePoint" />
            <mxPoint x="278.80999999999995" y="310.79999999999995" as="targetPoint" />
          </mxGeometry>
        </mxCell>
        <mxCell id="PonbNWA1ZkeW4sVt43dB-36" value="TCP" style="text;html=1;align=center;verticalAlign=middle;whiteSpace=wrap;rounded=0;" parent="1" vertex="1">
          <mxGeometry x="400" y="200" width="60" height="30" as="geometry" />
        </mxCell>
        <mxCell id="PonbNWA1ZkeW4sVt43dB-37" value="HTTP 1.1" style="text;html=1;align=center;verticalAlign=middle;whiteSpace=wrap;rounded=0;" parent="1" vertex="1">
          <mxGeometry x="280" y="330" width="60" height="30" as="geometry" />
        </mxCell>
        <mxCell id="kNKSNLn6TpRnp2pMIPx8-1" value="" style="rounded=0;whiteSpace=wrap;html=1;" parent="1" vertex="1">
          <mxGeometry x="10" y="200" width="1220" height="1020" as="geometry" />
        </mxCell>
        <mxCell id="kNKSNLn6TpRnp2pMIPx8-2" value="Docker-compose" style="verticalAlign=top;align=left;spacingTop=8;spacingLeft=2;spacingRight=12;shape=cube;size=10;direction=south;fontStyle=4;html=1;whiteSpace=wrap;" parent="1" vertex="1">
          <mxGeometry x="110" y="260" width="1035" height="420" as="geometry" />
        </mxCell>
        <mxCell id="kNKSNLn6TpRnp2pMIPx8-3" value="&amp;lt;&amp;lt;device&amp;gt;&amp;gt;&lt;br&gt;Client" style="verticalAlign=top;align=center;spacingTop=8;spacingLeft=2;spacingRight=12;shape=cube;size=10;direction=south;fontStyle=4;html=1;whiteSpace=wrap;" parent="1" vertex="1">
          <mxGeometry x="250" y="808.5100000000002" width="330" height="301.49" as="geometry" />
        </mxCell>
        <mxCell id="kNKSNLn6TpRnp2pMIPx8-4" value="Browser&lt;div&gt;Microsoft Edge 128.0.2739.79&lt;/div&gt;" style="verticalAlign=top;align=center;spacingTop=8;spacingLeft=2;spacingRight=12;shape=cube;size=10;direction=south;fontStyle=4;html=1;whiteSpace=wrap;" parent="1" vertex="1">
          <mxGeometry x="286" y="880" width="265" height="170" as="geometry" />
        </mxCell>
        <mxCell id="kNKSNLn6TpRnp2pMIPx8-5" value="ReactJS 18.0.2 " style="shape=module;align=left;spacingLeft=20;align=center;verticalAlign=top;whiteSpace=wrap;html=1;" parent="1" vertex="1">
          <mxGeometry x="306" y="950" width="210" height="80" as="geometry" />
        </mxCell>
        <mxCell id="kNKSNLn6TpRnp2pMIPx8-6" value="OC. Windows 11 Pro" style="text;html=1;align=center;verticalAlign=middle;whiteSpace=wrap;rounded=0;" parent="1" vertex="1">
          <mxGeometry x="421" y="1060" width="120" height="30" as="geometry" />
        </mxCell>
        <mxCell id="kNKSNLn6TpRnp2pMIPx8-7" value="" style="strokeWidth=2;html=1;shape=mxgraph.flowchart.database;whiteSpace=wrap;" parent="1" vertex="1">
          <mxGeometry x="759" y="330" width="320" height="280" as="geometry" />
        </mxCell>
        <mxCell id="kNKSNLn6TpRnp2pMIPx8-8" value="Docker Container&lt;div&gt;Database Server&lt;/div&gt;" style="text;html=1;align=center;verticalAlign=middle;whiteSpace=wrap;rounded=0;" parent="1" vertex="1">
          <mxGeometry x="869" y="440" width="100" height="30" as="geometry" />
        </mxCell>
        <mxCell id="kNKSNLn6TpRnp2pMIPx8-9" value="Oracle 21c" style="shape=module;align=left;spacingLeft=20;align=center;verticalAlign=top;whiteSpace=wrap;html=1;" parent="1" vertex="1">
          <mxGeometry x="814" y="493" width="210" height="57" as="geometry" />
        </mxCell>
        <mxCell id="kNKSNLn6TpRnp2pMIPx8-10" value="OC. Linux. Ubuntu 20.04 LTS" style="text;html=1;align=center;verticalAlign=middle;whiteSpace=wrap;rounded=0;" parent="1" vertex="1">
          <mxGeometry x="829" y="570" width="180" height="30" as="geometry" />
        </mxCell>
        <mxCell id="kNKSNLn6TpRnp2pMIPx8-11" style="edgeStyle=orthogonalEdgeStyle;rounded=0;orthogonalLoop=1;jettySize=auto;html=1;startArrow=classic;startFill=1;" parent="1" source="kNKSNLn6TpRnp2pMIPx8-13" target="kNKSNLn6TpRnp2pMIPx8-7" edge="1">
          <mxGeometry relative="1" as="geometry" />
        </mxCell>
        <mxCell id="kNKSNLn6TpRnp2pMIPx8-12" value="TCP" style="edgeLabel;html=1;align=center;verticalAlign=middle;resizable=0;points=[];" parent="kNKSNLn6TpRnp2pMIPx8-11" vertex="1" connectable="0">
          <mxGeometry x="-0.022" y="3" relative="1" as="geometry">
            <mxPoint as="offset" />
          </mxGeometry>
        </mxCell>
        <mxCell id="kNKSNLn6TpRnp2pMIPx8-13" value="Docker Container&lt;div&gt;APIsevice&lt;br&gt;&lt;/div&gt;" style="verticalAlign=top;align=center;spacingTop=8;spacingLeft=2;spacingRight=12;shape=cube;size=10;direction=south;fontStyle=4;html=1;whiteSpace=wrap;" parent="1" vertex="1">
          <mxGeometry x="250" y="350" width="330" height="240" as="geometry" />
        </mxCell>
        <mxCell id="kNKSNLn6TpRnp2pMIPx8-14" value="NodeJS 20.0.0 LTS&amp;nbsp;&lt;div&gt;NestJS 10.0.0&lt;br&gt;&lt;/div&gt;" style="shape=module;align=left;spacingLeft=20;align=center;verticalAlign=top;whiteSpace=wrap;html=1;" parent="1" vertex="1">
          <mxGeometry x="310" y="450" width="210" height="80" as="geometry" />
        </mxCell>
        <mxCell id="kNKSNLn6TpRnp2pMIPx8-15" value="OC. Linux. Ubuntu 20.04 LTS" style="text;html=1;align=center;verticalAlign=middle;whiteSpace=wrap;rounded=0;" parent="1" vertex="1">
          <mxGeometry x="380" y="550" width="180" height="30" as="geometry" />
        </mxCell>
        <mxCell id="kNKSNLn6TpRnp2pMIPx8-16" style="edgeStyle=orthogonalEdgeStyle;rounded=0;orthogonalLoop=1;jettySize=auto;html=1;startArrow=classic;startFill=1;entryX=0.995;entryY=0.698;entryDx=0;entryDy=0;entryPerimeter=0;" parent="1" source="kNKSNLn6TpRnp2pMIPx8-3" target="kNKSNLn6TpRnp2pMIPx8-13" edge="1">
          <mxGeometry relative="1" as="geometry">
            <mxPoint x="350" y="630" as="targetPoint" />
            <Array as="points">
              <mxPoint x="350" y="589" />
            </Array>
          </mxGeometry>
        </mxCell>
        <mxCell id="kNKSNLn6TpRnp2pMIPx8-17" value="HTTP 1.1" style="edgeLabel;html=1;align=center;verticalAlign=middle;resizable=0;points=[];" parent="kNKSNLn6TpRnp2pMIPx8-16" vertex="1" connectable="0">
          <mxGeometry x="-0.015" relative="1" as="geometry">
            <mxPoint as="offset" />
          </mxGeometry>
        </mxCell>
        <mxCell id="kNKSNLn6TpRnp2pMIPx8-20" value="OC. Windows 11 Pro. Docker 25.0.2" style="text;html=1;align=center;verticalAlign=middle;whiteSpace=wrap;rounded=0;" parent="1" vertex="1">
          <mxGeometry x="979" y="644" width="141" height="30" as="geometry" />
        </mxCell>
      </root>
    </mxGraphModel>
  </diagram>
</mxfile>
